<?xml version="1.0" encoding="UTF-8"?>
<svg id="Layer_1" xmlns="http://www.w3.org/2000/svg" xmlns:xlink="http://www.w3.org/1999/xlink" xmlns:i="http://ns.adobe.com/AdobeIllustrator/10.0/" version="1.1" viewBox="0 0 1507.1 841.8">
  <!-- Generator: Adobe Illustrator 29.2.1, SVG Export Plug-In . SVG Version: 2.1.0 Build 116)  -->
  <defs>
    <style>
      .st0 {
        fill: url(#linear-gradient1);
      }

      .st1 {
        fill: url(#linear-gradient);
      }

      .st2 {
        fill: #006472;
      }
    </style>
    <linearGradient id="linear-gradient" x1="327.9" y1="420.9" x2="649.6" y2="420.9" gradientUnits="userSpaceOnUse">
      <stop offset="0" stop-color="#006472"/>
      <stop offset="1" stop-color="#17b0d1"/>
    </linearGradient>
    <linearGradient id="linear-gradient1" x1="6.1" y1="421.3" x2="327.9" y2="421.3" gradientUnits="userSpaceOnUse">
      <stop offset="0" stop-color="#006472"/>
      <stop offset="1" stop-color="#17b0d1"/>
    </linearGradient>
  </defs>
  <g>
    <path class="st2" d="M796.5,270.9c0,10.8-2,20.3-6,28.6-4,8.3-9.7,14.7-17,19.1-7.4,4.5-15.7,6.7-25.1,6.7s-17.7-2.2-25-6.5c-7.3-4.3-13-10.5-17-18.5-4.1-8-6.2-17.3-6.4-27.7v-6.2c0-10.8,2-20.4,6-28.6,4-8.3,9.7-14.6,17.1-19.1,7.4-4.5,15.8-6.8,25.3-6.8s17.7,2.2,25,6.7c7.3,4.5,13,10.8,17.1,19,4.1,8.2,6.1,17.6,6.2,28.3v5.1ZM769.4,266.2c0-11-1.8-19.3-5.5-25-3.7-5.7-8.9-8.5-15.7-8.5-13.3,0-20.4,10-21.2,30v8.1c0,10.8,1.7,19.1,5.3,25,3.6,5.8,8.9,8.7,16,8.7s11.9-2.9,15.5-8.6c3.6-5.7,5.5-13.9,5.5-24.6v-5.1Z"/>
    <path class="st2" d="M883.7,283.4c0,12.7-2.9,22.9-8.6,30.5-5.7,7.6-13.5,11.4-23.2,11.4s-13.7-2.8-18.6-8.3v38.3h-25.6v-113.6h23.9l.8,7.6c4.9-6.1,11.3-9.1,19.3-9.1s18,3.7,23.6,11.2,8.4,17.7,8.4,30.8v1.2ZM858.1,281.8c0-14.6-4.2-21.8-12.7-21.8s-10.1,2.2-12.1,6.5v32.3c2.2,4.6,6.3,6.8,12.3,6.8s12.3-7,12.6-21.1v-2.7Z"/>
    <path class="st2" d="M934.6,325.3c-12.6,0-22.8-3.8-30.6-11.3-7.8-7.5-11.7-17.3-11.7-29.3v-2.1c0-8.4,1.6-15.8,4.7-22.2,3.1-6.4,7.6-11.4,13.6-14.9,6-3.5,13-5.3,21.2-5.3s20.6,3.6,27.3,10.7c6.7,7.2,10,17.1,10,29.9v9.9h-50.8c.9,4.6,2.9,8.2,6,10.8,3.1,2.6,7.1,3.9,12,3.9,8.1,0,14.4-2.8,19-8.5l11.7,13.8c-3.2,4.4-7.7,7.9-13.5,10.5-5.8,2.6-12.1,3.9-18.8,3.9ZM931.8,259.9c-7.5,0-11.9,5-13.3,14.9h25.8v-2c.1-4.1-.9-7.3-3.1-9.5s-5.3-3.4-9.3-3.4Z"/>
    <path class="st2" d="M1003,241.7l.8,9.6c5.7-7.4,13.5-11.1,23.4-11.1s14.9,2.6,19.1,7.7,6.4,12.8,6.6,23.1v52.9h-25.6v-51.8c0-4.1-.8-7.2-2.5-9.1-1.7-1.9-4.7-2.9-9.1-2.9s-8.7,2-11.1,5.9v57.9h-25.6v-82.1h24Z"/>
    <path class="st2" d="M744,459.9h-14.4v39.1h-26.6v-110.4h43.5c13.1,0,23.3,2.9,30.7,8.7,7.4,5.8,11.1,14,11.1,24.6s-1.6,14-4.7,19.1c-3.1,5.1-8,9.1-14.6,12.3l23.1,44.6v1.1h-28.5l-19.5-39.1ZM729.6,439.4h16.8c5.1,0,8.9-1.3,11.4-4,2.6-2.7,3.8-6.4,3.8-11.1s-1.3-8.5-3.9-11.2c-2.6-2.7-6.4-4.1-11.4-4.1h-16.8v30.4Z"/>
    <path class="st2" d="M836.6,500.4c-12.6,0-22.8-3.8-30.6-11.3-7.8-7.5-11.7-17.3-11.7-29.3v-2.1c0-8.4,1.6-15.8,4.7-22.2,3.1-6.4,7.6-11.4,13.6-14.9,6-3.5,13-5.3,21.2-5.3s20.6,3.6,27.3,10.7c6.7,7.2,10,17.1,10,29.9v9.9h-50.8c.9,4.6,2.9,8.2,6,10.8,3.1,2.6,7.1,3.9,12,3.9,8.1,0,14.4-2.8,19-8.5l11.7,13.8c-3.2,4.4-7.7,7.9-13.5,10.5-5.8,2.6-12.1,3.9-18.8,3.9ZM833.7,435.1c-7.5,0-11.9,5-13.3,14.9h25.8v-2c.1-4.1-.9-7.3-3.1-9.5s-5.3-3.4-9.3-3.4Z"/>
    <path class="st2" d="M880,457.3c0-8.3,1.4-15.6,4.1-22,2.7-6.4,6.6-11.3,11.8-14.8,5.1-3.5,11-5.2,17.8-5.2s15.2,2.9,20,8.6l.9-7.1h23.2v79c0,7.2-1.7,13.5-5,18.8-3.4,5.3-8.2,9.4-14.6,12.3-6.4,2.9-13.8,4.3-22.1,4.3s-11.8-1.1-17.5-3.4-9.9-5.2-12.9-8.9l10.7-15c4.8,5.6,11,8.4,18.8,8.4,11.3,0,17-5.8,17-17.4v-2.6c-4.9,5.4-11.1,8.1-18.6,8.1s-18.1-3.8-24.3-11.5c-6.2-7.7-9.3-17.9-9.3-30.8v-.9ZM905.7,458.9c0,6.7,1.3,12,3.8,16,2.5,3.9,6.1,5.9,10.6,5.9s9.5-1.8,12.1-5.5v-34.5c-2.5-3.7-6.4-5.6-11.9-5.6s-8.1,2-10.7,6.1c-2.6,4.1-3.9,10-3.9,17.7Z"/>
    <path class="st2" d="M1019.7,490.1c-5.4,6.9-12.7,10.4-21.9,10.4s-15.8-2.6-20.4-7.9c-4.6-5.2-6.9-12.8-6.9-22.6v-53.2h25.6v53.3c0,7,3.4,10.5,10.2,10.5s10-2.1,12.5-6.3v-57.6h25.7v82.1h-24l-.8-8.9Z"/>
    <path class="st2" d="M1083.1,498.9h-25.6v-116.5h25.6v116.5Z"/>
    <path class="st2" d="M1143.5,498.9c-.9-1.7-1.7-4.1-2.4-7.4-4.7,5.9-11.3,8.9-19.7,8.9s-14.3-2.3-19.7-7c-5.4-4.7-8.1-10.6-8.1-17.6s3.3-15.6,9.9-20.2,16.1-6.8,28.7-6.8h7.9v-4.3c0-7.6-3.3-11.4-9.8-11.4s-9.1,3-9.1,9h-25.6c0-7.9,3.4-14.4,10.1-19.3,6.8-4.9,15.4-7.4,25.8-7.4s18.7,2.6,24.8,7.7,9.2,12.1,9.3,21v36.3c.1,7.5,1.3,13.3,3.5,17.3v1.3h-25.6ZM1127.5,482.2c3.2,0,5.8-.7,7.9-2s3.6-2.9,4.5-4.6v-13.1h-7.4c-8.9,0-13.3,4-13.3,12s.8,4.2,2.4,5.7c1.6,1.4,3.6,2.2,6,2.2Z"/>
    <path class="st2" d="M1206.3,396.5v20.4h13.5v17.7h-13.5v37.5c0,3.1.6,5.2,1.7,6.4,1.1,1.2,3.3,1.8,6.6,1.8s4.7-.2,6.4-.5v18.3c-4.6,1.5-9.4,2.2-14.4,2.2-8.8,0-15.3-2.1-19.5-6.2-4.2-4.1-6.3-10.4-6.3-18.9v-40.7h-10.5v-17.7h10.5v-20.4h25.6Z"/>
    <path class="st2" d="M1224.4,457.1c0-8.2,1.6-15.5,4.8-21.9,3.2-6.4,7.8-11.3,13.7-14.8,6-3.4,13-5.2,21-5.2,12.3,0,22,3.8,29,11.4,7.1,7.6,10.6,18,10.6,31.1v.9c0,12.8-3.6,22.9-10.7,30.5-7.1,7.5-16.7,11.3-28.9,11.3s-21.1-3.5-28.1-10.5c-7.1-7-10.9-16.5-11.5-28.5v-4.3ZM1249.9,458.7c0,7.6,1.2,13.1,3.6,16.7,2.4,3.5,5.9,5.3,10.5,5.3,9.1,0,13.8-7,14-21v-2.6c0-14.7-4.7-22.1-14.1-22.1s-13.2,6.3-13.9,19v4.6Z"/>
    <path class="st2" d="M1361.4,440l-8.4-.6c-8,0-13.2,2.5-15.5,7.6v52h-25.6v-82.1h24l.8,10.5c4.3-8,10.3-12.1,18-12.1s5.1.3,7.1.9l-.5,23.7Z"/>
    <path class="st2" d="M1404.2,463.1l13.7-46.3h27.4l-33.4,95.8-1.4,3.5c-4.8,10.6-13.1,15.9-25.2,15.9s-6.9-.5-10.5-1.5v-18.2h3.3c3.6,0,6.3-.5,8.2-1.6s3.3-2.9,4.2-5.6l2-5.5-28.5-82.9h27.3l13,46.3Z"/>
    <path class="st2" d="M792.3,636.7c-.4,7.7-2.4,14.5-6.2,20.4-3.8,5.9-9.1,10.5-16,13.7-6.9,3.2-14.7,4.9-23.5,4.9-14.5,0-25.9-4.7-34.3-14.2-8.3-9.5-12.5-22.8-12.5-40v-5.5c0-10.8,1.9-20.3,5.7-28.4,3.8-8.1,9.2-14.4,16.3-18.8,7.1-4.4,15.3-6.6,24.6-6.6,13.4,0,24.2,3.5,32.3,10.6,8.1,7.1,12.8,16.8,13.9,29.2h-26.5c-.2-6.7-1.9-11.6-5.1-14.5-3.2-2.9-8-4.4-14.6-4.4s-11.5,2.5-14.6,7.4c-3.1,5-4.7,12.9-4.9,23.7v7.8c0,11.8,1.5,20.2,4.4,25.3,3,5.1,8.1,7.6,15.3,7.6s10.8-1.4,14-4.3c3.2-2.9,5-7.5,5.2-13.7h26.5Z"/>
    <path class="st2" d="M800.5,632.3c0-8.2,1.6-15.5,4.8-21.9s7.8-11.3,13.7-14.8c6-3.4,13-5.2,21-5.2,12.3,0,22,3.8,29,11.4,7.1,7.6,10.6,18,10.6,31.1v.9c0,12.8-3.6,22.9-10.7,30.5-7.1,7.5-16.7,11.3-28.9,11.3s-21.1-3.5-28.1-10.5c-7.1-7-10.9-16.5-11.5-28.5v-4.3ZM826.1,633.9c0,7.6,1.2,13.1,3.6,16.7,2.4,3.5,5.9,5.3,10.5,5.3,9.1,0,13.8-7,14-21v-2.6c0-14.7-4.7-22.1-14.1-22.1s-13.2,6.3-13.9,19v4.6Z"/>
    <path class="st2" d="M912.8,592l.8,9.6c5.8-7.4,13.6-11.1,23.4-11.1s17.4,4.1,21,12.4c5.6-8.2,13.6-12.4,24.1-12.4,16.6,0,25.2,10.1,25.6,30.2v53.4h-25.6v-51.8c0-4.2-.7-7.3-2.1-9.2-1.4-1.9-4-2.9-7.7-2.9s-8.8,2.3-11.3,6.8v1.1c0,0,0,56,0,56h-25.6v-51.6c0-4.3-.7-7.4-2-9.3-1.4-1.9-4-2.9-7.8-2.9s-8.6,2.3-11.2,6.8v57.1h-25.6v-82.1h24Z"/>
    <path class="st2" d="M1095.5,633.7c0,12.7-2.9,22.9-8.6,30.5-5.7,7.6-13.5,11.4-23.2,11.4s-13.7-2.8-18.6-8.3v38.3h-25.6v-113.6h23.9l.8,7.6c4.9-6.1,11.3-9.1,19.3-9.1s18,3.7,23.6,11.2,8.4,17.7,8.4,30.8v1.2ZM1069.9,632.1c0-14.6-4.2-21.8-12.7-21.8s-10.1,2.2-12.1,6.5v32.3c2.2,4.6,6.3,6.8,12.3,6.8s12.3-7,12.6-21.1v-2.7Z"/>
    <path class="st2" d="M1130.6,674.1h-25.6v-116.5h25.6v116.5Z"/>
    <path class="st2" d="M1142.4,570.9c0-3.6,1.3-6.6,3.9-8.9,2.6-2.3,6-3.5,10.2-3.5s7.6,1.2,10.2,3.5,3.9,5.3,3.9,8.9-1.3,6.6-3.9,9-6,3.5-10.2,3.5-7.6-1.2-10.2-3.5c-2.6-2.3-3.9-5.3-3.9-9ZM1169.6,674.1h-25.6v-82.1h25.6v82.1Z"/>
    <path class="st2" d="M1230,674.1c-.9-1.7-1.7-4.1-2.4-7.4-4.7,5.9-11.3,8.9-19.7,8.9s-14.3-2.3-19.7-7c-5.4-4.7-8.1-10.6-8.1-17.6s3.3-15.6,9.9-20.2,16.1-6.8,28.7-6.8h7.9v-4.3c0-7.6-3.3-11.4-9.8-11.4s-9.1,3-9.1,9h-25.6c0-7.9,3.4-14.4,10.1-19.3,6.8-4.9,15.4-7.4,25.8-7.4s18.7,2.6,24.8,7.7,9.2,12.1,9.3,21v36.3c.1,7.5,1.3,13.3,3.5,17.3v1.3h-25.6ZM1214,657.4c3.2,0,5.8-.7,7.9-2s3.6-2.9,4.5-4.6v-13.1h-7.4c-8.9,0-13.3,4-13.3,12s.8,4.2,2.4,5.7c1.6,1.4,3.6,2.2,6,2.2Z"/>
    <path class="st2" d="M1286.6,592l.8,9.6c5.7-7.4,13.5-11.1,23.4-11.1s14.9,2.6,19.1,7.7c4.2,5.1,6.4,12.8,6.6,23.1v52.9h-25.6v-51.8c0-4.1-.8-7.2-2.5-9.1-1.7-1.9-4.7-2.9-9.1-2.9s-8.7,2-11.1,5.9v57.9h-25.6v-82.1h24Z"/>
    <path class="st2" d="M1382.3,655.9c3.6,0,6.4-1,8.3-2.9,2-1.9,2.9-4.7,2.9-8.2h24c0,9-3.2,16.4-9.7,22.1-6.4,5.8-14.8,8.6-24.9,8.6s-21.3-3.7-28.2-11.2c-6.9-7.5-10.3-17.8-10.3-31.1v-1.1c0-8.3,1.5-15.6,4.6-22,3.1-6.3,7.5-11.2,13.2-14.6,5.8-3.4,12.6-5.1,20.5-5.1s19.1,3,25.4,8.9c6.3,5.9,9.4,13.9,9.4,24h-24c0-4.2-1-7.5-3.1-9.8-2.1-2.3-4.9-3.4-8.3-3.4-6.6,0-10.5,4.2-11.6,12.7-.4,2.7-.5,6.4-.5,11.1,0,8.2,1,14,3,17.1,2,3.2,5.1,4.8,9.4,4.8Z"/>
    <path class="st2" d="M1466.4,675.6c-12.6,0-22.8-3.8-30.6-11.3-7.8-7.5-11.7-17.3-11.7-29.3v-2.1c0-8.4,1.6-15.8,4.7-22.2,3.1-6.4,7.6-11.4,13.6-14.9,6-3.5,13-5.3,21.2-5.3s20.6,3.6,27.3,10.7c6.7,7.2,10,17.1,10,29.9v9.9h-50.8c.9,4.6,2.9,8.2,6,10.8,3.1,2.6,7.1,3.9,12,3.9,8.1,0,14.4-2.8,19-8.5l11.7,13.8c-3.2,4.4-7.7,7.9-13.5,10.5-5.8,2.6-12.1,3.9-18.8,3.9ZM1463.6,610.2c-7.5,0-11.9,5-13.3,14.9h25.8v-2c.1-4.1-.9-7.3-3.1-9.5s-5.3-3.4-9.3-3.4Z"/>
  </g>
  <g>
    <path class="st1" d="M327.9,6.2l.6-.8,16.3,21c96.3,124.7,221.2,166.2,270.4,178.3l34.5,8.5-321.8,347.2v-61.5l243.9-263.1c-60.8-19.9-160-65.3-243.8-163.7,0,0,0,0,0,0V6.2ZM327.9,654.6v61.6l.3.4,258.8-285.4c-7.9,62.8-15.7,112.4-22.9,145.5-11.9,54.8-63.2,104.6-104,136.7-46.4,36.5-98,64.8-131.7,78.2-.2,0-.3-.1-.5-.2v44.9h.1c0,0,7.3-2.6,7.3-2.6,36.3-13.2,97-45.3,150.6-87.5,46.3-36.4,104.5-93.8,119.1-160.7,10-45.8,20.5-118,31.3-214.6l7.2-64.3-315.5,347.9h0Z"/>
    <path class="st0" d="M327.4,499.3l.4-.5v61.5l-.5.5-111.7-120.7-47.8,41.6,159.9,172.9v61.6l-220-237.8,111-96.5,108.5,117.3ZM327.9,791.5c-77.4-32.1-222.9-126.2-241.1-218.4-17.9-90.9-32.2-273.7-36.4-332.2,47.4-10.7,172-48.8,277.4-168.7V6.2l-16,19.9C189.8,178.5,27,202.9,25.4,203.1l-19.3,2.6,1.3,19.5c.7,9.9,16.4,244.8,38.4,356,23.5,119.2,198.7,223.3,275,252.5l7.1,2.7v-44.9Z"/>
  </g>
</svg>
